<svg width="32" height="32" viewBox="0 0 32 32" fill="none" xmlns="http://www.w3.org/2000/svg">
<path fill-rule="evenodd" clip-rule="evenodd" d="M22.15 9.73125C20.3688 7.95 17.9937 7 15.5 7C10.275 7 6 11.275 6 16.5C6 18.1625 6.47501 19.825 7.30626 21.25L6 26L10.9875 24.6937C12.4125 25.4062 13.9563 25.8812 15.5 25.8812C20.725 25.8812 25 21.6062 25 16.3812C25 13.8875 23.9313 11.5125 22.15 9.73125ZM15.5 24.3375C14.075 24.3375 12.65 23.9813 11.4625 23.2688L11.225 23.15L8.25624 23.9812L9.08751 21.1312L8.84999 20.775C8.01874 19.4688 7.66249 18.0438 7.66249 16.6188C7.66249 12.3438 11.225 8.78125 15.5 8.78125C17.6375 8.78125 19.5375 9.6125 21.0813 11.0375C22.625 12.5812 23.3375 14.4813 23.3375 16.6188C23.3375 20.775 19.8938 24.3375 15.5 24.3375ZM19.775 18.4C19.5375 18.2813 18.35 17.6875 18.1125 17.6875C17.875 17.5687 17.7562 17.5688 17.6375 17.8063C17.5187 18.0438 17.0438 18.5187 16.925 18.7562C16.8063 18.875 16.6875 18.875 16.45 18.875C16.2125 18.7562 15.5 18.5187 14.55 17.6875C13.8375 17.0938 13.3625 16.2625 13.2438 16.025C13.125 15.7875 13.2438 15.6687 13.3625 15.55C13.4813 15.4312 13.6 15.3125 13.7188 15.1937C13.8375 15.075 13.8375 14.9563 13.9563 14.8375C14.075 14.7188 13.9563 14.6 13.9563 14.4813C13.9563 14.3625 13.4813 13.175 13.2438 12.7C13.125 12.3438 12.8875 12.3438 12.7688 12.3438C12.65 12.3438 12.5312 12.3438 12.2937 12.3438C12.175 12.3438 11.9375 12.3437 11.7 12.5812C11.4625 12.8187 10.8688 13.4125 10.8688 14.6C10.8688 15.7875 11.7 16.8562 11.8187 17.0938C11.9375 17.2125 13.4812 19.7062 15.8562 20.6562C17.875 21.4875 18.2313 21.25 18.7063 21.25C19.1813 21.25 20.1312 20.6563 20.25 20.1813C20.4875 19.5875 20.4875 19.1125 20.3688 19.1125C20.25 18.5188 20.0125 18.5188 19.775 18.4Z" fill="white"/>
</svg>
