<svg width="91" height="29" viewBox="0 0 91 29" fill="none" xmlns="http://www.w3.org/2000/svg">
<path d="M0.0400001 22V0.999999H13.6V4.09H3.88V9.97H11.74V13H3.88V22H0.0400001ZM22.9124 22.36C21.4124 22.36 20.0824 22.04 18.9224 21.4C17.7624 20.76 16.8524 19.86 16.1924 18.7C15.5324 17.54 15.2024 16.2 15.2024 14.68C15.2024 13.14 15.5224 11.77 16.1624 10.57C16.8224 9.37 17.7224 8.44 18.8624 7.78C20.0224 7.1 21.3824 6.76 22.9424 6.76C24.4024 6.76 25.6924 7.08 26.8124 7.72C27.9324 8.36 28.8024 9.24 29.4224 10.36C30.0624 11.46 30.3824 12.69 30.3824 14.05C30.3824 14.27 30.3724 14.5 30.3524 14.74C30.3524 14.98 30.3424 15.23 30.3224 15.49H19.0124C19.0924 16.65 19.4924 17.56 20.2124 18.22C20.9524 18.88 21.8424 19.21 22.8824 19.21C23.6624 19.21 24.3124 19.04 24.8324 18.7C25.3724 18.34 25.7724 17.88 26.0324 17.32H29.9324C29.6524 18.26 29.1824 19.12 28.5224 19.9C27.8824 20.66 27.0824 21.26 26.1224 21.7C25.1824 22.14 24.1124 22.36 22.9124 22.36ZM22.9424 9.88C22.0024 9.88 21.1724 10.15 20.4524 10.69C19.7324 11.21 19.2724 12.01 19.0724 13.09H26.4824C26.4224 12.11 26.0624 11.33 25.4024 10.75C24.7424 10.17 23.9224 9.88 22.9424 9.88ZM33.6121 22V0.399999H37.4521V22H33.6121ZM43.4458 4.81C42.7458 4.81 42.1658 4.6 41.7058 4.18C41.2658 3.76 41.0458 3.23 41.0458 2.59C41.0458 1.95 41.2658 1.43 41.7058 1.03C42.1658 0.609999 42.7458 0.399999 43.4458 0.399999C44.1458 0.399999 44.7158 0.609999 45.1558 1.03C45.6158 1.43 45.8458 1.95 45.8458 2.59C45.8458 3.23 45.6158 3.76 45.1558 4.18C44.7158 4.6 44.1458 4.81 43.4458 4.81ZM41.5258 22V7.12H45.3658V22H41.5258ZM49.3738 28.6V7.12H52.7938L53.2138 9.25C53.6938 8.59 54.3238 8.01 55.1038 7.51C55.9038 7.01 56.9338 6.76 58.1938 6.76C59.5938 6.76 60.8438 7.1 61.9438 7.78C63.0438 8.46 63.9138 9.39 64.5538 10.57C65.1938 11.75 65.5138 13.09 65.5138 14.59C65.5138 16.09 65.1938 17.43 64.5538 18.61C63.9138 19.77 63.0438 20.69 61.9438 21.37C60.8438 22.03 59.5938 22.36 58.1938 22.36C57.0738 22.36 56.0938 22.15 55.2538 21.73C54.4138 21.31 53.7338 20.72 53.2138 19.96V28.6H49.3738ZM57.3838 19C58.6038 19 59.6138 18.59 60.4138 17.77C61.2138 16.95 61.6138 15.89 61.6138 14.59C61.6138 13.29 61.2138 12.22 60.4138 11.38C59.6138 10.54 58.6038 10.12 57.3838 10.12C56.1438 10.12 55.1238 10.54 54.3238 11.38C53.5438 12.2 53.1538 13.26 53.1538 14.56C53.1538 15.86 53.5438 16.93 54.3238 17.77C55.1238 18.59 56.1438 19 57.3838 19ZM76.1741 22.36C74.6741 22.36 73.3441 22.04 72.1841 21.4C71.0241 20.76 70.1141 19.86 69.4541 18.7C68.7941 17.54 68.4641 16.2 68.4641 14.68C68.4641 13.14 68.7841 11.77 69.4241 10.57C70.0841 9.37 70.9841 8.44 72.1241 7.78C73.2841 7.1 74.6441 6.76 76.2041 6.76C77.6641 6.76 78.9541 7.08 80.0741 7.72C81.1941 8.36 82.0641 9.24 82.6841 10.36C83.3241 11.46 83.6441 12.69 83.6441 14.05C83.6441 14.27 83.6341 14.5 83.6141 14.74C83.6141 14.98 83.6041 15.23 83.5841 15.49H72.2741C72.3541 16.65 72.7541 17.56 73.4741 18.22C74.2141 18.88 75.1041 19.21 76.1441 19.21C76.9241 19.21 77.5741 19.04 78.0941 18.7C78.6341 18.34 79.0341 17.88 79.2941 17.32H83.1941C82.9141 18.26 82.4441 19.12 81.7841 19.9C81.1441 20.66 80.3441 21.26 79.3841 21.7C78.4441 22.14 77.3741 22.36 76.1741 22.36ZM76.2041 9.88C75.2641 9.88 74.4341 10.15 73.7141 10.69C72.9941 11.21 72.5341 12.01 72.3341 13.09H79.7441C79.6841 12.11 79.3241 11.33 78.6641 10.75C78.0041 10.17 77.1841 9.88 76.2041 9.88Z" fill="white"/>
<path d="M88.5238 22.21C87.8238 22.21 87.2438 21.99 86.7838 21.55C86.3438 21.11 86.1238 20.58 86.1238 19.96C86.1238 19.32 86.3438 18.78 86.7838 18.34C87.2438 17.9 87.8238 17.68 88.5238 17.68C89.2238 17.68 89.7938 17.9 90.2338 18.34C90.6938 18.78 90.9238 19.32 90.9238 19.96C90.9238 20.58 90.6938 21.11 90.2338 21.55C89.7938 21.99 89.2238 22.21 88.5238 22.21Z" fill="#5AA3E8"/>
</svg>
